%TF.GenerationSoftware,KiCad,Pcbnew,9.0.3*%
%TF.CreationDate,2025-07-26T18:17:39+02:00*%
%TF.ProjectId,ports_for_motors,706f7274-735f-4666-9f72-5f6d6f746f72,rev?*%
%TF.SameCoordinates,Original*%
%TF.FileFunction,Legend,Top*%
%TF.FilePolarity,Positive*%
%FSLAX46Y46*%
G04 Gerber Fmt 4.6, Leading zero omitted, Abs format (unit mm)*
G04 Created by KiCad (PCBNEW 9.0.3) date 2025-07-26 18:17:39*
%MOMM*%
%LPD*%
G01*
G04 APERTURE LIST*
%ADD10C,0.150000*%
%ADD11C,0.120000*%
G04 APERTURE END LIST*
D10*
X38914819Y-21833333D02*
X39629104Y-21833333D01*
X39629104Y-21833333D02*
X39771961Y-21880952D01*
X39771961Y-21880952D02*
X39867200Y-21976190D01*
X39867200Y-21976190D02*
X39914819Y-22119047D01*
X39914819Y-22119047D02*
X39914819Y-22214285D01*
X39010057Y-21404761D02*
X38962438Y-21357142D01*
X38962438Y-21357142D02*
X38914819Y-21261904D01*
X38914819Y-21261904D02*
X38914819Y-21023809D01*
X38914819Y-21023809D02*
X38962438Y-20928571D01*
X38962438Y-20928571D02*
X39010057Y-20880952D01*
X39010057Y-20880952D02*
X39105295Y-20833333D01*
X39105295Y-20833333D02*
X39200533Y-20833333D01*
X39200533Y-20833333D02*
X39343390Y-20880952D01*
X39343390Y-20880952D02*
X39914819Y-21452380D01*
X39914819Y-21452380D02*
X39914819Y-20833333D01*
X26731666Y-28939819D02*
X26731666Y-29654104D01*
X26731666Y-29654104D02*
X26684047Y-29796961D01*
X26684047Y-29796961D02*
X26588809Y-29892200D01*
X26588809Y-29892200D02*
X26445952Y-29939819D01*
X26445952Y-29939819D02*
X26350714Y-29939819D01*
X27731666Y-29939819D02*
X27160238Y-29939819D01*
X27445952Y-29939819D02*
X27445952Y-28939819D01*
X27445952Y-28939819D02*
X27350714Y-29082676D01*
X27350714Y-29082676D02*
X27255476Y-29177914D01*
X27255476Y-29177914D02*
X27160238Y-29225533D01*
D11*
%TO.C,J2*%
X23000000Y-20120000D02*
X23000000Y-22880000D01*
X35810000Y-20120000D02*
X23000000Y-20120000D01*
X35810000Y-20120000D02*
X35810000Y-22880000D01*
X35810000Y-22880000D02*
X23000000Y-22880000D01*
X37080000Y-20120000D02*
X38460000Y-20120000D01*
X38460000Y-20120000D02*
X38460000Y-21500000D01*
%TO.C,J1*%
X25290000Y-30390000D02*
X25290000Y-36130000D01*
X25290000Y-30390000D02*
X37710000Y-30390000D01*
X25290000Y-38880000D02*
X25290000Y-43610000D01*
X25290000Y-43610000D02*
X37710000Y-43610000D01*
X37710000Y-30390000D02*
X37710000Y-36130000D01*
X37710000Y-38880000D02*
X37710000Y-43610000D01*
X37870000Y-32660000D02*
X38370000Y-33160000D01*
X38370000Y-32160000D02*
X37870000Y-32660000D01*
X38370000Y-32160000D02*
X38370000Y-33160000D01*
%TD*%
M02*
