%TF.GenerationSoftware,KiCad,Pcbnew,9.0.3*%
%TF.CreationDate,2025-07-26T18:17:39+02:00*%
%TF.ProjectId,ports_for_motors,706f7274-735f-4666-9f72-5f6d6f746f72,rev?*%
%TF.SameCoordinates,Original*%
%TF.FileFunction,Copper,L1,Top*%
%TF.FilePolarity,Positive*%
%FSLAX46Y46*%
G04 Gerber Fmt 4.6, Leading zero omitted, Abs format (unit mm)*
G04 Created by KiCad (PCBNEW 9.0.3) date 2025-07-26 18:17:39*
%MOMM*%
%LPD*%
G01*
G04 APERTURE LIST*
%TA.AperFunction,ComponentPad*%
%ADD10R,1.700000X1.700000*%
%TD*%
%TA.AperFunction,ComponentPad*%
%ADD11C,1.700000*%
%TD*%
%TA.AperFunction,ComponentPad*%
%ADD12R,1.520000X1.520000*%
%TD*%
%TA.AperFunction,ComponentPad*%
%ADD13C,1.520000*%
%TD*%
%TA.AperFunction,Conductor*%
%ADD14C,0.750000*%
%TD*%
G04 APERTURE END LIST*
D10*
%TO.P,J2,1,Pin_1*%
%TO.N,Net-(J2-Pin_1)*%
X37080000Y-21500000D03*
D11*
%TO.P,J2,2,Pin_2*%
%TO.N,Net-(J2-Pin_2)*%
X34540000Y-21500000D03*
%TO.P,J2,3,Pin_3*%
%TO.N,Net-(J2-Pin_3)*%
X32000000Y-21500000D03*
%TO.P,J2,4,Pin_4*%
%TO.N,Net-(J2-Pin_4)*%
X29460000Y-21500000D03*
%TO.P,J2,5,Pin_5*%
%TO.N,Net-(J2-Pin_5)*%
X26920000Y-21500000D03*
%TO.P,J2,6,Pin_6*%
%TO.N,Net-(J2-Pin_6)*%
X24380000Y-21500000D03*
%TD*%
D12*
%TO.P,J1,1*%
%TO.N,Net-(J2-Pin_1)*%
X34050000Y-32660000D03*
D13*
%TO.P,J1,2*%
%TO.N,Net-(J2-Pin_6)*%
X33030000Y-35200000D03*
%TO.P,J1,3*%
%TO.N,Net-(J2-Pin_2)*%
X32010000Y-32660000D03*
%TO.P,J1,4*%
%TO.N,Net-(J2-Pin_5)*%
X30990000Y-35200000D03*
%TO.P,J1,5*%
%TO.N,Net-(J2-Pin_3)*%
X29970000Y-32660000D03*
%TO.P,J1,6*%
%TO.N,Net-(J2-Pin_4)*%
X28950000Y-35200000D03*
%TD*%
D14*
%TO.N,Net-(J2-Pin_6)*%
X23000000Y-40000000D02*
X23000000Y-27000000D01*
X23000000Y-27000000D02*
X24500000Y-25500000D01*
X33030000Y-35200000D02*
X33030000Y-37970000D01*
X31000000Y-40000000D02*
X23000000Y-40000000D01*
X24380000Y-25380000D02*
X24380000Y-21500000D01*
X24500000Y-25500000D02*
X24380000Y-25380000D01*
X33030000Y-37970000D02*
X31000000Y-40000000D01*
%TO.N,Net-(J2-Pin_5)*%
X31000000Y-35210000D02*
X31000000Y-37000000D01*
X26500000Y-27000000D02*
X27000000Y-26500000D01*
X26920000Y-24420000D02*
X26920000Y-21500000D01*
X31000000Y-37000000D02*
X27511643Y-37000000D01*
X27511643Y-37000000D02*
X26500000Y-35988357D01*
X27000000Y-24500000D02*
X26920000Y-24420000D01*
X26500000Y-35988357D02*
X26500000Y-27000000D01*
X30990000Y-35200000D02*
X31000000Y-35210000D01*
X27000000Y-26500000D02*
X27000000Y-24500000D01*
%TO.N,Net-(J2-Pin_2)*%
X34540000Y-27960000D02*
X34540000Y-21500000D01*
X32010000Y-30490000D02*
X34540000Y-27960000D01*
X32010000Y-32660000D02*
X32010000Y-30490000D01*
%TO.N,Net-(J2-Pin_3)*%
X29970000Y-32660000D02*
X29970000Y-29530000D01*
X32000000Y-27500000D02*
X32000000Y-21500000D01*
X29970000Y-29530000D02*
X32000000Y-27500000D01*
%TO.N,Net-(J2-Pin_1)*%
X37080000Y-28420000D02*
X37080000Y-21500000D01*
X34050000Y-31450000D02*
X37080000Y-28420000D01*
X34050000Y-32660000D02*
X34050000Y-31450000D01*
%TO.N,Net-(J2-Pin_4)*%
X29460000Y-26960000D02*
X29460000Y-21500000D01*
X28000000Y-28500000D02*
X29500000Y-27000000D01*
X28950000Y-35200000D02*
X28000000Y-34250000D01*
X29500000Y-27000000D02*
X29460000Y-26960000D01*
X28000000Y-34250000D02*
X28000000Y-28500000D01*
%TD*%
M02*
